<?xml version="1.0" encoding="UTF-8"?>
<svg id="artwork" xmlns="http://www.w3.org/2000/svg" xmlns:xlink="http://www.w3.org/1999/xlink" viewBox="0 0 1024 880">
  <defs>
    <style>
      .cls-1 {
        fill: url(#linear-gradient-2);
      }

      .cls-2 {
        fill: url(#linear-gradient);
      }

      .cls-3 {
        fill: #fff;
        opacity: .35;
      }
    </style>
    <linearGradient id="linear-gradient" x1="37.73" y1="104.49" x2="661.7" y2="728.46" gradientUnits="userSpaceOnUse">
      <stop offset=".05" stop-color="#81c786"/>
      <stop offset=".53" stop-color="#eee234"/>
      <stop offset="1" stop-color="#a93e88"/>
    </linearGradient>
    <linearGradient id="linear-gradient-2" x1="106.24" y1="35.98" x2="730.21" y2="659.95" xlink:href="#linear-gradient"/>
  </defs>
  <g>
    <path class="cls-2" d="M533.65,389.62l-213.18-213.18c-13.84-13.84-36.29-13.84-50.13.02l-43.68,43.74c-13.82,13.84-13.81,36.26.02,50.09l119.34,119.34c13.84,13.84,13.84,36.27,0,50.11l-119.32,119.32c-13.84,13.84-13.84,36.27,0,50.11l43.65,43.65c13.84,13.84,36.27,13.84,50.1,0l46.91-46.89c14.43-14.43,39.1-4.2,39.1,16.2v30.23c0,19.57,15.86,35.43,35.43,35.43h322.97c19.57,0,35.43-15.86,35.43-35.43v-86.36c0-19.57-15.86-35.43-35.43-35.43h-267.43c-20.17,0-30.27-24.39-16-38.65l52.21-52.19c13.84-13.84,13.85-36.28,0-50.12Z"/>
    <path class="cls-1" d="M512,70.86c94.08,0,189.5,4.43,283.58,13.17,17.12,1.59,34.18,6.55,50.7,14.73,15.51,7.68,30.09,17.98,43.39,30.65l.02.02.09.09c13.32,12.75,24.31,26.95,32.66,42.18,8.94,16.3,14.58,33.29,16.76,50.48,9.24,72.84,13.93,146.71,13.93,219.56s-4.69,146.72-13.93,219.56c-2.18,17.19-7.82,34.18-16.76,50.48-8.35,15.23-19.34,29.42-32.66,42.18l-.04.04h-.01c-13.29,12.69-27.9,23.02-43.45,30.71-16.52,8.18-33.59,13.14-50.71,14.73-94.08,8.74-189.49,13.17-283.57,13.17s-189.5-4.43-283.58-13.17c-17.12-1.59-34.18-6.55-50.7-14.73-15.52-7.69-30.12-18-43.39-30.65h-.01s-.05-.06-.05-.06l-.04-.04c-13.32-12.75-24.31-26.95-32.66-42.18-8.94-16.3-14.58-33.29-16.76-50.48-9.24-72.84-13.93-146.71-13.93-219.56s4.69-146.72,13.93-219.56c2.18-17.19,7.82-34.18,16.76-50.48,8.34-15.22,19.32-29.39,32.67-42.19h.01s.03-.04.03-.04c13.29-12.68,27.9-23.01,43.45-30.7,16.52-8.18,33.59-13.14,50.71-14.73,94.08-8.74,189.49-13.17,283.57-13.17ZM512,10c-95.96,0-193.26,4.52-289.2,13.43-24.61,2.29-48.85,9.28-72.09,20.79-21.05,10.42-40.72,24.29-58.45,41.21l-.06.06-.06.06c-17.81,17.06-32.6,36.19-43.94,56.88-12.63,23.03-20.62,47.28-23.77,72.08-9.56,75.38-14.41,151.82-14.41,227.23s4.85,151.85,14.41,227.22c3.15,24.81,11.15,49.06,23.77,72.08,11.34,20.69,26.13,39.82,43.94,56.88l.07.06.07.06c17.73,16.92,37.4,30.78,58.45,41.21,23.24,11.51,47.48,18.5,72.07,20.79,95.96,8.91,193.26,13.43,289.22,13.43s193.26-4.52,289.2-13.43c24.6-2.29,48.85-9.28,72.09-20.79,21.05-10.42,40.72-24.29,58.45-41.21l.07-.06.07-.06c17.81-17.06,32.59-36.19,43.94-56.88,12.63-23.03,20.63-47.28,23.77-72.08,9.56-75.37,14.41-151.82,14.41-227.22s-4.85-151.85-14.41-227.22c-3.15-24.8-11.15-49.05-23.77-72.08-11.34-20.69-26.13-39.82-43.94-56.88l-.07-.06-.07-.06c-17.73-16.92-37.4-30.78-58.45-41.21-23.24-11.51-47.48-18.5-72.07-20.79-95.97-8.91-193.27-13.43-289.22-13.43h0Z"/>
  </g>
  <path class="cls-3" d="M295.41,169.7c8.49,0,16.48,3.31,22.48,9.31l213.18,213.18c6.01,6.01,9.31,13.99,9.31,22.49,0,8.5-3.31,16.48-9.32,22.49l-52.21,52.19c-7.66,7.66-9.85,18.63-5.7,28.64,4.14,10.01,13.45,16.22,24.28,16.22h267.43c17.53,0,31.8,14.26,31.8,31.8v86.36c0,17.53-14.26,31.8-31.8,31.8h-322.97c-17.53,0-31.8-14.26-31.8-31.8v-30.23c0-16.64-13.58-26.59-26.71-26.59-6.95,0-13.56,2.78-18.6,7.82l-46.91,46.89c-6.01,6-13.99,9.31-22.48,9.31s-16.48-3.31-22.48-9.31l-43.65-43.65c-12.4-12.4-12.4-32.57,0-44.97l119.32-119.32c7.38-7.38,11.44-17.19,11.44-27.63,0-10.44-4.06-20.25-11.44-27.63l-119.34-119.34c-12.39-12.39-12.4-32.55-.02-44.95l43.68-43.74c6.01-6.02,14-9.33,22.5-9.33M295.41,166.06c-9.08,0-18.15,3.47-25.07,10.4l-43.68,43.74c-13.82,13.84-13.81,36.26.02,50.09l119.34,119.34c13.84,13.84,13.84,36.27,0,50.11l-119.32,119.32c-13.84,13.84-13.84,36.27,0,50.11l43.65,43.65c6.92,6.92,15.99,10.38,25.06,10.38s18.13-3.46,25.05-10.37l46.91-46.89c4.67-4.66,10.4-6.75,16.03-6.75,11.78,0,23.07,9.15,23.07,22.95v30.23c0,19.57,15.86,35.43,35.43,35.43h322.97c19.57,0,35.43-15.86,35.43-35.43v-86.36c0-19.57-15.86-35.43-35.43-35.43h-267.43c-20.17,0-30.27-24.39-16-38.65l52.21-52.19c13.84-13.84,13.85-36.28,0-50.12l-213.18-213.18c-6.92-6.92-15.99-10.38-25.06-10.38h0Z"/>
  <path class="cls-3" d="M512,13.64c95.84,0,193.04,4.51,288.89,13.41,24.14,2.25,47.95,9.12,70.79,20.43,20.72,10.26,40.09,23.91,57.56,40.58l.05.05.08.07c17.55,16.8,32.1,35.64,43.27,56,12.41,22.63,20.26,46.44,23.36,70.79,9.55,75.22,14.38,151.51,14.38,226.76s-4.84,151.54-14.39,226.77c-3.09,24.35-10.95,48.16-23.36,70.79-11.16,20.36-25.72,39.2-43.28,56.01l-.04.04-.08.07c-17.47,16.66-36.83,30.32-57.55,40.58-22.84,11.31-46.66,18.18-70.81,20.43-95.83,8.9-193.02,13.41-288.86,13.41s-193.04-4.51-288.89-13.41c-24.14-2.25-47.95-9.12-70.79-20.43-20.72-10.26-40.09-23.91-57.55-40.57l-.07-.06-.07-.07c-17.54-16.8-32.1-35.64-43.27-56-12.41-22.63-20.26-46.44-23.36-70.79-9.54-75.22-14.38-151.51-14.38-226.76s4.84-151.55,14.39-226.77c3.09-24.35,10.95-48.16,23.35-70.79,11.17-20.36,25.72-39.2,43.27-56l.12-.12h0c17.47-16.67,36.83-30.32,57.56-40.58,22.84-11.31,46.66-18.18,70.81-20.43,95.83-8.9,193.02-13.41,288.86-13.41M512,10c-95.96,0-193.26,4.52-289.2,13.43-24.61,2.29-48.85,9.28-72.09,20.79-21.05,10.42-40.72,24.29-58.45,41.21l-.06.06-.06.06c-17.81,17.06-32.6,36.19-43.94,56.88-12.63,23.03-20.62,47.28-23.77,72.08-9.56,75.38-14.41,151.82-14.41,227.23s4.85,151.85,14.41,227.22c3.15,24.81,11.15,49.06,23.77,72.08,11.34,20.69,26.13,39.82,43.94,56.88l.07.06.07.06c17.73,16.92,37.4,30.78,58.45,41.21,23.24,11.51,47.48,18.5,72.07,20.79,95.96,8.91,193.26,13.43,289.22,13.43s193.26-4.52,289.2-13.43c24.6-2.29,48.85-9.28,72.09-20.79,21.05-10.42,40.72-24.29,58.45-41.21l.07-.06.07-.06c17.81-17.06,32.59-36.19,43.94-56.88,12.63-23.03,20.63-47.28,23.77-72.08,9.56-75.37,14.41-151.82,14.41-227.22s-4.85-151.85-14.41-227.22c-3.15-24.8-11.15-49.05-23.77-72.08-11.34-20.69-26.13-39.82-43.94-56.88l-.07-.06-.07-.06c-17.73-16.92-37.4-30.78-58.45-41.21-23.24-11.51-47.48-18.5-72.07-20.79-95.97-8.91-193.27-13.43-289.22-13.43h0Z"/>
  <path class="cls-3" d="M512,70.86c94.08,0,189.5,4.43,283.58,13.17,17.12,1.59,34.18,6.55,50.7,14.73,15.51,7.68,30.09,17.98,43.39,30.65l.02.02.09.09c13.32,12.75,24.31,26.95,32.66,42.18,8.94,16.3,14.58,33.29,16.76,50.48,9.24,72.84,13.93,146.71,13.93,219.56s-4.69,146.72-13.93,219.56c-2.18,17.19-7.82,34.18-16.76,50.48-8.35,15.23-19.34,29.42-32.66,42.18l-.04.04h-.01c-13.29,12.69-27.9,23.02-43.45,30.71-16.52,8.18-33.59,13.14-50.71,14.73-94.08,8.74-189.49,13.17-283.57,13.17s-189.5-4.43-283.58-13.17c-17.12-1.59-34.18-6.55-50.7-14.73-15.52-7.69-30.12-18-43.39-30.65h-.01s-.05-.06-.05-.06l-.04-.04c-13.32-12.76-24.31-26.95-32.66-42.18-8.94-16.3-14.58-33.29-16.76-50.48-9.24-72.84-13.93-146.71-13.93-219.56s4.69-146.72,13.93-219.56c2.18-17.19,7.82-34.18,16.76-50.48,8.34-15.22,19.32-29.39,32.67-42.19h.01s.03-.04.03-.04c13.29-12.68,27.9-23.01,43.45-30.7,16.52-8.18,33.59-13.14,50.71-14.73,94.08-8.74,189.49-13.17,283.57-13.17M512,67.23c-94.2,0-189.72,4.43-283.91,13.18-17.57,1.64-35.06,6.71-51.98,15.09-15.87,7.86-30.79,18.4-44.34,31.33-13.66,13.08-24.87,27.57-33.4,43.11-9.16,16.7-14.94,34.12-17.18,51.77-9.26,72.99-13.96,147.02-13.96,220.02s4.7,147.03,13.96,220.02c2.24,17.65,8.02,35.07,17.18,51.77,8.53,15.56,19.75,30.05,33.34,43.06l2.61-2.54-2.53,2.61c13.58,12.94,28.48,23.47,44.33,31.31,16.92,8.38,34.41,13.46,51.97,15.09,94.2,8.75,189.72,13.18,283.92,13.18s189.72-4.43,283.91-13.18c17.57-1.64,35.06-6.71,51.98-15.09,15.87-7.86,30.79-18.4,44.34-31.33h0s.06-.06.06-.06c13.58-13,24.8-27.49,33.33-43.05,9.16-16.71,14.94-34.12,17.18-51.77,9.26-72.99,13.96-147.02,13.96-220.02s-4.7-147.03-13.96-220.02c-2.24-17.65-8.02-35.07-17.18-51.77-8.53-15.56-19.75-30.05-33.34-43.06l-.08-.08c-13.58-12.94-28.48-23.46-44.32-31.3-16.92-8.38-34.41-13.46-51.97-15.09-94.2-8.75-189.73-13.18-283.92-13.18h0Z"/>
</svg>