<?xml version="1.0" encoding="UTF-8"?>
<svg id="artwork" xmlns="http://www.w3.org/2000/svg" xmlns:xlink="http://www.w3.org/1999/xlink" viewBox="0 0 1080 875">
  <defs>
    <style>
      .cls-1 {
        fill: url(#linear-gradient-5);
      }

      .cls-1, .cls-2, .cls-3, .cls-4, .cls-5, .cls-6, .cls-7 {
        fill-rule: evenodd;
      }

      .cls-2 {
        fill: url(#linear-gradient-7);
      }

      .cls-3 {
        fill: url(#linear-gradient-2);
      }

      .cls-4 {
        fill: url(#linear-gradient-3);
      }

      .cls-5 {
        fill: url(#linear-gradient-4);
      }

      .cls-6 {
        fill: url(#linear-gradient-6);
      }

      .cls-8 {
        fill: url(#linear-gradient-8);
      }

      .cls-9 {
        fill: url(#linear-gradient-9);
      }

      .cls-10, .cls-11 {
        fill: #fff;
      }

      .cls-10, .cls-12 {
        opacity: .35;
      }

      .cls-7 {
        fill: url(#linear-gradient);
      }
    </style>
    <linearGradient id="linear-gradient" x1="-7.44" y1="789.32" x2="1075.69" y2="789.32" gradientUnits="userSpaceOnUse">
      <stop offset=".05" stop-color="#81c786"/>
      <stop offset=".53" stop-color="#eee234"/>
      <stop offset="1" stop-color="#a93e88"/>
    </linearGradient>
    <linearGradient id="linear-gradient-2" x1="-7.44" y1="760.13" x2="1075.69" y2="760.13" xlink:href="#linear-gradient"/>
    <linearGradient id="linear-gradient-3" x1="-7.44" y1="760.13" x2="1075.69" y2="760.13" xlink:href="#linear-gradient"/>
    <linearGradient id="linear-gradient-4" x1="-7.44" y1="789.32" x2="1075.69" y2="789.32" xlink:href="#linear-gradient"/>
    <linearGradient id="linear-gradient-5" x1="-7.44" y1="760.13" x2="1075.69" y2="760.13" xlink:href="#linear-gradient"/>
    <linearGradient id="linear-gradient-6" x1="-7.44" y1="789.32" x2="1075.69" y2="789.32" xlink:href="#linear-gradient"/>
    <linearGradient id="linear-gradient-7" x1="-7.44" y1="760.13" x2="1075.69" y2="760.13" xlink:href="#linear-gradient"/>
    <linearGradient id="linear-gradient-8" x1="220.76" y1="67.6" x2="634.19" y2="481.03" xlink:href="#linear-gradient"/>
    <linearGradient id="linear-gradient-9" x1="266.15" y1="22.21" x2="679.58" y2="435.64" xlink:href="#linear-gradient"/>
  </defs>
  <g>
    <g>
      <polygon class="cls-7" points="269.22 789.32 269.22 716.34 351.58 716.34 413.5 716.34 413.5 730.94 413.5 745.53 423.82 745.53 434.14 745.53 434.14 803.92 434.14 862.3 413.5 862.3 392.86 862.3 392.86 803.92 392.86 745.53 382.54 745.53 372.22 745.53 372.22 803.92 372.22 862.3 351.58 862.3 330.94 862.3 330.94 803.92 330.94 745.53 320.62 745.53 310.3 745.53 310.3 803.92 310.3 862.3 279.54 862.3 269.22 862.3 269.22 789.32"/>
      <polygon class="cls-3" points="941.16 672.55 941.16 657.95 1003.08 657.95 1065 657.95 1065 672.55 1065 687.15 1044.36 687.15 1023.72 687.15 1023.72 760.13 1023.72 833.11 1044.36 833.11 1065 833.11 1065 847.7 1065 862.3 1003.08 862.3 941.16 862.3 941.16 847.7 941.16 833.11 961.8 833.11 982.44 833.11 982.44 760.13 982.44 687.15 961.8 687.15 941.16 687.15 941.16 672.55"/>
      <polygon class="cls-4" points="778.29 745.53 778.29 657.95 798.93 657.95 819.57 657.95 819.57 745.53 819.57 833.11 850.53 833.11 881.49 833.11 881.49 745.53 881.49 657.95 902.13 657.95 922.76 657.95 922.76 745.53 922.76 833.11 912.44 833.11 902.13 833.11 902.13 847.7 902.13 862.3 850.53 862.3 798.93 862.3 798.93 847.7 798.93 833.11 788.61 833.11 778.29 833.11 778.29 745.53"/>
      <path class="cls-5" d="M749.57,745.53h-10.32v-29.19h-103.2v29.19h-20.64v87.58h20.64v29.19h103.2v-29.19h20.64v-87.58h-10.32ZM718.61,789.32v43.79h-61.92v-87.58h61.92v43.79Z"/>
      <path class="cls-1" d="M586.7,745.53h-10.32v-29.19h-82.56v-58.38h-41.28v175.15h20.64v29.19h103.2v-29.19h20.64v-87.58h-10.32ZM555.74,789.32v43.79h-61.92v-87.58h61.92v43.79Z"/>
      <path class="cls-6" d="M240.5,745.53h-10.32v-29.19h-103.2v29.19h82.56v29.19h-82.56v29.19h-20.64v29.19h20.64v29.19h123.84v-116.77h-10.32ZM209.54,818.51v14.6h-61.92v-29.19h61.92v14.6Z"/>
      <polygon class="cls-2" points="5 672.55 5 657.95 66.92 657.95 128.84 657.95 128.84 672.55 128.84 687.15 108.2 687.15 87.56 687.15 87.56 774.72 87.56 862.3 66.92 862.3 46.28 862.3 46.28 774.72 46.28 687.15 25.64 687.15 5 687.15 5 672.55"/>
    </g>
    <g class="cls-12">
      <path class="cls-11" d="M411.09,718.75v29.19h20.64v111.95h-36.46v-116.77h-25.46v116.77h-36.46v-116.77h-25.46v116.77h-36.27v-141.14h139.46M413.5,716.34h-144.28v145.96h41.08v-116.77h20.64v116.77h41.28v-116.77h20.64v116.77h41.28v-116.77h-20.64v-29.19h0Z"/>
      <path class="cls-11" d="M1062.59,660.36v24.37h-41.28v150.78h41.28v24.37h-119.02v-24.37h41.28v-150.78h-41.28v-24.37h119.02M1065,657.95h-123.84v29.19h41.28v145.96h-41.28v29.19h123.84v-29.19h-41.28v-145.96h41.28v-29.19h0Z"/>
      <path class="cls-11" d="M920.36,660.36v170.34h-20.64v29.19h-98.38v-29.19h-20.64v-170.34h36.46v175.15h66.74v-175.15h36.46M922.76,657.95h-41.28v175.15h-61.92v-175.15h-41.28v175.15h20.64v29.19h103.2v-29.19h20.64v-175.15h0Z"/>
      <path class="cls-11" d="M736.84,718.75v29.19h20.64v82.76h-20.64v29.19h-98.38v-29.19h-20.64v-82.76h20.64v-29.19h98.38M654.28,835.52h66.74v-92.4h-66.74v92.4M739.25,716.34h-103.2v29.19h-20.64v87.58h20.64v29.19h103.2v-29.19h20.64v-87.58h-20.64v-29.19h0ZM656.69,833.11v-87.58h61.92v87.58h-61.92Z"/>
      <path class="cls-11" d="M491.41,660.36v58.38h82.56v29.19h20.64v82.76h-20.64v29.19h-98.38v-29.19h-20.64v-170.34h36.46M491.41,835.52h66.74v-92.4h-66.74v92.4M493.82,657.95h-41.28v175.15h20.64v29.19h103.2v-29.19h20.64v-87.58h-20.64v-29.19h-82.56v-58.38h0ZM493.82,833.11v-87.58h61.92v87.58h-61.92Z"/>
      <path class="cls-11" d="M227.77,718.75v29.19h20.64v111.95h-119.02v-29.19h-20.64v-24.37h20.64v-29.19h82.56v-34.01h-82.56v-24.37h98.38M145.21,835.52h66.74v-34.01h-66.74v34.01M230.18,716.34h-103.2v29.19h82.56v29.19h-82.56v29.19h-20.64v29.19h20.64v29.19h123.84v-116.77h-20.64v-29.19h0ZM147.62,833.11v-29.19h61.92v29.19h-61.92Z"/>
      <path class="cls-11" d="M126.43,660.36v24.37h-41.28v175.15h-36.46v-175.15H7.41v-24.37h119.02M128.84,657.95H5v29.19h41.28v175.15h41.28v-175.15h41.28v-29.19h0Z"/>
    </g>
  </g>
  <g>
    <g>
      <path class="cls-8" d="M549.35,256.53l-141.25-141.25c-9.17-9.17-24.05-9.17-33.21.01l-28.94,28.98c-9.16,9.17-9.15,24.03.01,33.19l79.07,79.07c9.17,9.17,9.17,24.03,0,33.2l-79.06,79.06c-9.17,9.17-9.17,24.03,0,33.2l28.92,28.92c9.17,9.17,24.03,9.17,33.2,0l31.08-31.07c9.56-9.56,25.91-2.79,25.91,10.74v20.03c0,12.97,10.51,23.48,23.48,23.48h213.99c12.97,0,23.48-10.51,23.48-23.48v-57.22c0-12.97-10.51-23.48-23.48-23.48h-177.19c-13.37,0-20.06-16.16-10.6-25.61l34.6-34.58c9.17-9.17,9.17-24.04,0-33.21Z"/>
      <path class="cls-9" d="M535,45.33c62.34,0,125.56,2.94,187.9,8.72,11.34,1.06,22.65,4.34,33.59,9.76,10.28,5.09,19.94,11.91,28.75,20.31h.01s.06.07.06.07c8.83,8.45,16.11,17.85,21.64,27.95,5.92,10.8,9.66,22.06,11.11,33.45,6.12,48.26,9.23,97.21,9.23,145.48s-3.11,97.21-9.23,145.48c-1.45,11.39-5.18,22.64-11.11,33.45-5.53,10.09-12.82,19.5-21.64,27.95l-.03.03h0c-8.8,8.41-18.49,15.25-28.79,20.35-10.95,5.42-22.25,8.7-33.6,9.76-62.34,5.79-125.55,8.72-187.89,8.72s-125.56-2.94-187.9-8.72c-11.34-1.06-22.64-4.34-33.59-9.76-10.28-5.09-19.96-11.93-28.75-20.31h0s-.03-.04-.03-.04l-.03-.03c-8.83-8.45-16.11-17.85-21.64-27.95-5.92-10.8-9.66-22.06-11.11-33.45-6.12-48.26-9.23-97.21-9.23-145.48s3.11-97.22,9.23-145.48c1.45-11.39,5.18-22.64,11.11-33.45,5.53-10.08,12.8-19.47,21.65-27.95h0s.02-.03.02-.03c8.8-8.4,18.49-15.24,28.79-20.34,10.95-5.42,22.25-8.7,33.6-9.76,62.34-5.79,125.55-8.72,187.89-8.72ZM535,5c-63.58,0-128.05,2.99-191.62,8.9-16.3,1.52-32.37,6.15-47.76,13.78-13.95,6.91-26.98,16.09-38.73,27.3l-.04.04-.04.04c-11.8,11.3-21.6,23.98-29.11,37.69-8.37,15.26-13.67,31.32-15.75,47.76-6.34,49.94-9.55,100.6-9.55,150.56s3.21,100.61,9.55,150.55c2.09,16.44,7.39,32.5,15.75,47.76,7.52,13.71,17.31,26.39,29.11,37.69l.04.04.04.04c11.75,11.21,24.78,20.4,38.73,27.3,15.4,7.62,31.46,12.26,47.75,13.77,63.58,5.9,128.05,8.9,191.63,8.9s128.05-2.99,191.62-8.9c16.3-1.52,32.37-6.15,47.76-13.78,13.95-6.91,26.98-16.09,38.73-27.3l.04-.04.04-.04c11.8-11.3,21.6-23.98,29.11-37.68,8.37-15.26,13.67-31.33,15.75-47.76,6.34-49.94,9.55-100.59,9.55-150.55s-3.21-100.61-9.55-150.55c-2.09-16.43-7.39-32.5-15.75-47.76-7.52-13.71-17.31-26.39-29.11-37.69l-.04-.04-.04-.04c-11.75-11.21-24.78-20.4-38.73-27.3-15.4-7.62-31.46-12.26-47.75-13.77-63.59-5.9-128.06-8.9-191.63-8.9h0Z"/>
    </g>
    <path class="cls-10" d="M391.5,110.81c5.63,0,10.92,2.19,14.9,6.17l141.25,141.25c3.98,3.98,6.17,9.27,6.17,14.9,0,5.63-2.19,10.92-6.17,14.9l-34.6,34.58c-5.08,5.07-6.52,12.34-3.78,18.97,2.75,6.63,8.91,10.75,16.08,10.75h177.19c11.62,0,21.07,9.45,21.07,21.07v57.22c0,11.62-9.45,21.07-21.07,21.07h-213.99c-11.62,0-21.07-9.45-21.07-21.07v-20.03c0-11.03-9-17.62-17.7-17.62-4.61,0-8.98,1.84-12.32,5.18l-31.08,31.07c-3.98,3.98-9.27,6.17-14.89,6.17s-10.92-2.19-14.9-6.17l-28.92-28.92c-8.21-8.21-8.21-21.58,0-29.79l79.06-79.06c4.89-4.89,7.58-11.39,7.58-18.3,0-6.91-2.69-13.42-7.58-18.3l-79.07-79.07c-8.21-8.21-8.21-21.57-.01-29.78l28.94-28.98c3.98-3.99,9.28-6.18,14.91-6.18M391.5,108.41c-6.01,0-12.03,2.3-16.61,6.89l-28.94,28.98c-9.16,9.17-9.15,24.03.01,33.19l79.07,79.07c9.17,9.17,9.17,24.03,0,33.2l-79.06,79.06c-9.17,9.17-9.17,24.03,0,33.2l28.92,28.92c4.58,4.58,10.59,6.88,16.6,6.88s12.01-2.29,16.6-6.87l31.08-31.07c3.09-3.09,6.89-4.47,10.62-4.47,7.8,0,15.29,6.06,15.29,15.21v20.03c0,12.97,10.51,23.48,23.48,23.48h213.99c12.97,0,23.48-10.51,23.48-23.48v-57.22c0-12.97-10.51-23.48-23.48-23.48h-177.19c-13.37,0-20.06-16.16-10.6-25.61l34.6-34.58c9.17-9.17,9.17-24.04,0-33.21l-141.25-141.25c-4.58-4.58-10.59-6.88-16.6-6.88h0Z"/>
    <path class="cls-10" d="M535,7.41c63.5,0,127.9,2.99,191.41,8.89,15.99,1.49,31.77,6.04,46.9,13.53,13.73,6.8,26.56,15.84,38.14,26.89l.03.03.05.05c11.63,11.13,21.27,23.61,28.67,37.1,8.22,14.99,13.43,30.77,15.47,46.91,6.32,49.84,9.53,100.39,9.53,150.25s-3.21,100.41-9.53,150.25c-2.05,16.13-7.25,31.91-15.47,46.9-7.4,13.49-17.04,25.97-28.67,37.11l-.03.03-.05.05c-11.57,11.04-24.4,20.09-38.13,26.89-15.13,7.49-30.92,12.05-46.92,13.54-63.49,5.9-127.89,8.89-191.4,8.89s-127.91-2.99-191.41-8.89c-15.99-1.49-31.77-6.04-46.9-13.53-13.73-6.8-26.56-15.84-38.13-26.88l-.04-.04-.05-.04c-11.62-11.13-21.27-23.61-28.67-37.1-8.22-14.99-13.43-30.77-15.47-46.91-6.32-49.84-9.53-100.39-9.53-150.25s3.21-100.41,9.53-150.25c2.05-16.13,7.25-31.91,15.47-46.9,7.4-13.49,17.04-25.98,28.67-37.11l.08-.08h0c11.57-11.04,24.4-20.09,38.14-26.89,15.13-7.49,30.92-12.05,46.92-13.54,63.5-5.9,127.89-8.89,191.4-8.89M535,5c-63.58,0-128.05,2.99-191.62,8.9-16.3,1.52-32.37,6.15-47.76,13.78-13.95,6.91-26.98,16.09-38.73,27.3l-.04.04-.04.04c-11.8,11.3-21.6,23.98-29.11,37.69-8.37,15.26-13.67,31.32-15.75,47.76-6.34,49.94-9.55,100.6-9.55,150.56s3.21,100.61,9.55,150.55c2.09,16.44,7.39,32.5,15.75,47.76,7.52,13.71,17.31,26.39,29.11,37.69l.04.04.04.04c11.75,11.21,24.78,20.4,38.73,27.3,15.4,7.62,31.46,12.26,47.75,13.77,63.58,5.9,128.05,8.9,191.63,8.9s128.05-2.99,191.62-8.9c16.3-1.52,32.37-6.15,47.76-13.78,13.95-6.91,26.98-16.09,38.73-27.3l.04-.04.04-.04c11.8-11.3,21.6-23.98,29.11-37.68,8.37-15.26,13.67-31.33,15.75-47.76,6.34-49.94,9.55-100.59,9.55-150.55s-3.21-100.61-9.55-150.55c-2.09-16.43-7.39-32.5-15.75-47.76-7.52-13.71-17.31-26.39-29.11-37.69l-.04-.04-.04-.04c-11.75-11.21-24.78-20.4-38.73-27.3-15.4-7.62-31.46-12.26-47.75-13.77-63.59-5.9-128.06-8.9-191.63-8.9h0Z"/>
    <path class="cls-10" d="M535,45.33c62.34,0,125.56,2.94,187.9,8.72,11.34,1.06,22.65,4.34,33.59,9.76,10.28,5.09,19.94,11.91,28.75,20.31h.01s.06.07.06.07c8.83,8.45,16.11,17.85,21.64,27.95,5.92,10.8,9.66,22.06,11.11,33.45,6.12,48.26,9.23,97.21,9.23,145.48s-3.11,97.21-9.23,145.48c-1.45,11.39-5.18,22.64-11.11,33.45-5.53,10.09-12.82,19.5-21.64,27.95l-.03.03h0c-8.8,8.41-18.49,15.25-28.79,20.35-10.95,5.42-22.25,8.7-33.6,9.76-62.34,5.79-125.55,8.72-187.89,8.72s-125.56-2.94-187.9-8.72c-11.34-1.06-22.64-4.34-33.59-9.76-10.28-5.09-19.96-11.93-28.75-20.31h0s-.03-.04-.03-.04l-.03-.03c-8.83-8.45-16.11-17.85-21.64-27.95-5.92-10.8-9.66-22.06-11.11-33.45-6.12-48.26-9.23-97.21-9.23-145.48s3.11-97.22,9.23-145.48c1.45-11.39,5.18-22.64,11.11-33.45,5.53-10.08,12.8-19.47,21.65-27.95h0s.02-.03.02-.03c8.8-8.4,18.49-15.24,28.79-20.34,10.95-5.42,22.25-8.7,33.6-9.76,62.34-5.79,125.55-8.72,187.89-8.72M535,42.92c-62.41,0-125.7,2.94-188.11,8.73-11.64,1.08-23.23,4.45-34.44,10-10.52,5.21-20.4,12.19-29.38,20.76-9.05,8.67-16.48,18.27-22.13,28.57-6.07,11.07-9.9,22.61-11.38,34.3-6.14,48.36-9.25,97.41-9.25,145.78s3.11,97.42,9.25,145.78c1.48,11.69,5.31,23.23,11.38,34.3,5.65,10.31,13.08,19.91,22.09,28.53l1.73-1.68-1.68,1.73c9,8.58,18.87,15.55,29.37,20.75,11.21,5.55,22.8,8.92,34.44,10,62.41,5.8,125.71,8.73,188.12,8.73s125.7-2.94,188.11-8.73c11.64-1.08,23.23-4.45,34.44-10,10.52-5.21,20.4-12.19,29.38-20.76h0s.04-.04.04-.04c9-8.62,16.43-18.21,22.08-28.52,6.07-11.07,9.9-22.61,11.38-34.3,6.14-48.36,9.25-97.41,9.25-145.78s-3.11-97.42-9.25-145.78c-1.48-11.69-5.31-23.24-11.38-34.3-5.65-10.31-13.08-19.91-22.09-28.53l-.06-.05c-9-8.57-18.87-15.55-29.36-20.74-11.21-5.55-22.8-8.92-34.44-10-62.42-5.8-125.71-8.73-188.12-8.73h0Z"/>
  </g>
</svg>