<?xml version="1.0" encoding="UTF-8"?>
<svg id="artwork" xmlns="http://www.w3.org/2000/svg" xmlns:xlink="http://www.w3.org/1999/xlink" version="1.1" viewBox="0 0 1024 1024">
  <!-- Generator: Adobe Illustrator 30.0.0, SVG Export Plug-In . SVG Version: 2.1.1 Build 123)  -->
  <defs>
    <style>
      .st0 {
        fill: url(#linear-gradient1);
      }

      .st1 {
        fill: url(#linear-gradient);
      }

      .st2 {
        fill: #fff;
        isolation: isolate;
        opacity: .3;
      }
    </style>
    <linearGradient id="linear-gradient" x1="37.7" y1="-525.2" x2="661.7" y2="98.7" gradientTransform="translate(0 700)" gradientUnits="userSpaceOnUse">
      <stop offset="0" stop-color="#81c786"/>
      <stop offset=".5" stop-color="#eee234"/>
      <stop offset="1" stop-color="#a93e88"/>
    </linearGradient>
    <linearGradient id="linear-gradient1" x1="106.2" y1="-593.8" x2="730.2" y2="30.2" gradientTransform="translate(0 700)" gradientUnits="userSpaceOnUse">
      <stop offset="0" stop-color="#81c786"/>
      <stop offset=".5" stop-color="#eee234"/>
      <stop offset="1" stop-color="#a93e88"/>
    </linearGradient>
  </defs>
  <g>
    <path class="st1" d="M533.6,459.9l-213.2-213.2c-13.8-13.8-36.3-13.8-50.1,0l-43.7,43.7c-13.8,13.8-13.8,36.3,0,50.1l119.3,119.3c13.8,13.8,13.8,36.3,0,50.1l-119.3,119.3c-13.8,13.8-13.8,36.3,0,50.1l43.6,43.7c13.8,13.8,36.3,13.8,50.1,0l46.9-46.9c14.4-14.4,39.1-4.2,39.1,16.2v30.2c0,19.6,15.9,35.4,35.4,35.4h323c19.6,0,35.4-15.9,35.4-35.4v-86.4c0-19.6-15.9-35.4-35.4-35.4h-267.4c-20.2,0-30.3-24.4-16-38.6l52.2-52.2c13.8-13.8,13.8-36.3,0-50.1h.1Z"/>
    <path class="st0" d="M512,141.1c94.1,0,189.5,4.4,283.6,13.2,17.1,1.6,34.2,6.6,50.7,14.7,15.5,7.7,30.1,18,43.4,30.6h0c13.3,12.9,24.3,27,32.7,42.3,8.9,16.3,14.6,33.3,16.8,50.5,9.2,72.8,13.9,146.7,13.9,219.6s-4.7,146.7-13.9,219.6c-2.2,17.2-7.8,34.2-16.8,50.5-8.3,15.2-19.3,29.4-32.7,42.2h0c-13.3,12.7-27.9,23-43.5,30.7-16.5,8.2-33.6,13.1-50.7,14.7-94.1,8.7-189.5,13.2-283.6,13.2s-189.5-4.4-283.6-13.2c-17.1-1.6-34.2-6.5-50.7-14.7-15.5-7.7-30.1-18-43.4-30.7h0c-13.3-12.8-24.3-27-32.7-42.2-8.9-16.3-14.6-33.3-16.8-50.5-9.2-72.8-13.9-146.7-13.9-219.6s4.7-146.7,13.9-219.6c2.2-17.2,7.8-34.2,16.8-50.5,8.3-15.2,19.3-29.4,32.7-42.2h0c13.3-12.7,27.9-23,43.4-30.7,16.5-8.2,33.6-13.1,50.7-14.7,94.1-8.7,189.5-13.2,283.6-13.2h.1ZM512,80.3c-96,0-193.3,4.5-289.2,13.4-24.6,2.3-48.9,9.3-72.1,20.8-21.1,10.4-40.7,24.3-58.4,41.2h0c-17.8,17.2-32.6,36.3-43.9,57-12.6,23-20.6,47.3-23.8,72.1-9.6,75.4-14.4,151.8-14.4,227.2s4.9,151.8,14.4,227.2c3.1,24.8,11.2,49.1,23.8,72.1,11.3,20.7,26.1,39.8,43.9,56.9h0c17.7,17,37.4,30.9,58.4,41.3,23.2,11.5,47.5,18.5,72.1,20.8,96,8.9,193.3,13.4,289.2,13.4s193.3-4.5,289.2-13.4c24.6-2.3,48.8-9.3,72.1-20.8,21-10.4,40.7-24.3,58.5-41.2h0c17.8-17.2,32.6-36.3,43.9-57,12.6-23,20.6-47.3,23.8-72.1,9.6-75.4,14.4-151.8,14.4-227.2s-4.8-151.9-14.4-227.2c-3.2-24.8-11.2-49.1-23.8-72.1-11.3-20.7-26.1-39.8-43.9-56.9h0c-17.7-17-37.4-30.9-58.5-41.3-23.2-11.5-47.5-18.5-72.1-20.8-96-8.9-193.3-13.4-289.2-13.4h0Z"/>
  </g>
  <path class="st2" d="M295.4,240c8.5,0,16.5,3.3,22.5,9.3l213.2,213.2c6,6,9.3,14,9.3,22.5s-3.3,16.5-9.3,22.5l-52.2,52.2c-7.7,7.7-9.9,18.6-5.7,28.6,4.1,10,13.5,16.2,24.3,16.2h267.4c17.5,0,31.8,14.3,31.8,31.8v86.4c0,17.5-14.3,31.8-31.8,31.8h-323c-17.5,0-31.8-14.3-31.8-31.8v-30.2c0-16.6-13.6-26.6-26.7-26.6s-13.6,2.8-18.6,7.8l-46.9,46.9c-6,6-14,9.3-22.5,9.3s-16.5-3.3-22.5-9.3l-43.6-43.7c-12.4-12.4-12.4-32.6,0-45l119.3-119.3c7.4-7.4,11.4-17.2,11.4-27.6s-4.1-20.2-11.4-27.6l-119.3-119.3c-12.4-12.4-12.4-32.6,0-44.9l43.7-43.7c6-6,14-9.3,22.5-9.3M295.4,236.3c-9.1,0-18.1,3.5-25.1,10.4l-43.7,43.7c-13.8,13.8-13.8,36.3,0,50.1l119.3,119.3c13.8,13.8,13.8,36.3,0,50.1l-119.3,119.3c-13.8,13.8-13.8,36.3,0,50.1l43.6,43.7c6.9,6.9,16,10.4,25.1,10.4s18.1-3.5,25-10.4l46.9-46.9c4.7-4.7,10.4-6.8,16-6.8,11.8,0,23.1,9.2,23.1,23v30.2c0,19.6,15.9,35.4,35.4,35.4h323c19.6,0,35.4-15.9,35.4-35.4v-86.4c0-19.6-15.9-35.4-35.4-35.4h-267.4c-20.2,0-30.3-24.4-16-38.6l52.2-52.2c13.8-13.8,13.8-36.3,0-50.1l-213.2-213.2c-6.9-6.9-16-10.4-25.1-10.4h.2Z"/>
  <path class="st2" d="M512,83.9c95.8,0,193,4.5,288.9,13.4,24.1,2.2,48,9.1,70.8,20.4,20.7,10.3,40.1,23.9,57.6,40.6h0c17.5,16.9,32.1,35.7,43.3,56.1,12.4,22.6,20.3,46.4,23.4,70.8,9.5,75.2,14.4,151.5,14.4,226.8s-4.8,151.5-14.4,226.8c-3.1,24.3-11,48.2-23.4,70.8-11.2,20.4-25.7,39.2-43.3,56h0c-17.5,16.8-36.8,30.4-57.5,40.7-22.8,11.3-46.7,18.2-70.8,20.4-95.8,8.9-193,13.4-288.9,13.4s-193-4.5-288.9-13.4c-24.1-2.2-47.9-9.1-70.8-20.4-20.7-10.3-40.1-23.9-57.6-40.6h0c-17.5-16.9-32.1-35.7-43.3-56.1-12.4-22.6-20.3-46.4-23.4-70.8-9.5-75.2-14.4-151.5-14.4-226.8s4.8-151.5,14.4-226.8c3.1-24.4,10.9-48.2,23.4-70.8,11.2-20.4,25.7-39.2,43.3-56h0c17.5-16.8,36.8-30.4,57.6-40.7,22.8-11.3,46.7-18.2,70.8-20.4,95.8-8.9,193-13.4,288.9-13.4M512,80.3c-96,0-193.3,4.5-289.2,13.4-24.6,2.3-48.9,9.3-72.1,20.8-21.1,10.4-40.7,24.3-58.4,41.2h0c-17.8,17.2-32.6,36.3-43.9,57-12.6,23-20.6,47.3-23.8,72.1-9.6,75.4-14.4,151.8-14.4,227.2s4.9,151.8,14.4,227.2c3.1,24.8,11.2,49.1,23.8,72.1,11.3,20.7,26.1,39.8,43.9,56.9h0c17.7,17,37.4,30.9,58.4,41.3,23.2,11.5,47.5,18.5,72.1,20.8,96,8.9,193.3,13.4,289.2,13.4s193.3-4.5,289.2-13.4c24.6-2.3,48.8-9.3,72.1-20.8,21-10.4,40.7-24.3,58.5-41.2h0c17.8-17.2,32.6-36.3,43.9-57,12.6-23,20.6-47.3,23.8-72.1,9.6-75.4,14.4-151.8,14.4-227.2s-4.8-151.9-14.4-227.2c-3.2-24.8-11.2-49.1-23.8-72.1-11.3-20.7-26.1-39.8-43.9-56.9h0c-17.7-17-37.4-30.9-58.5-41.3-23.2-11.5-47.5-18.5-72.1-20.8-96-8.9-193.3-13.4-289.2-13.4h0Z"/>
  <path class="st2" d="M512,141.1c94.1,0,189.5,4.4,283.6,13.2,17.1,1.6,34.2,6.6,50.7,14.7,15.5,7.7,30.1,18,43.4,30.6h0c13.3,12.9,24.3,27,32.7,42.3,8.9,16.3,14.6,33.3,16.8,50.5,9.2,72.8,13.9,146.7,13.9,219.6s-4.7,146.7-13.9,219.6c-2.2,17.2-7.8,34.2-16.8,50.5-8.3,15.2-19.3,29.4-32.7,42.2h0c-13.3,12.7-27.9,23-43.5,30.7-16.5,8.2-33.6,13.1-50.7,14.7-94.1,8.7-189.5,13.2-283.6,13.2s-189.5-4.4-283.6-13.2c-17.1-1.6-34.2-6.5-50.7-14.7-15.5-7.7-30.1-18-43.4-30.7h0c-13.3-12.8-24.3-27-32.7-42.2-8.9-16.3-14.6-33.3-16.8-50.5-9.2-72.8-13.9-146.7-13.9-219.6s4.7-146.7,13.9-219.6c2.2-17.2,7.8-34.2,16.8-50.5,8.3-15.2,19.3-29.4,32.7-42.2h0c13.3-12.7,27.9-23,43.4-30.7,16.5-8.2,33.6-13.1,50.7-14.7,94.1-8.7,189.5-13.2,283.6-13.2M512,137.5c-94.2,0-189.7,4.4-283.9,13.2-17.6,1.6-35.1,6.7-52,15.1-15.9,7.9-30.8,18.4-44.3,31.3-13.7,13.1-24.9,27.6-33.4,43.1-9.2,16.7-14.9,34.1-17.2,51.8-9.3,73-14,147-14,220s4.7,147,14,220c2.2,17.7,8,35.1,17.2,51.8,8.5,15.6,19.8,30,33.3,43.1l2.6-2.5-2.5,2.6c13.6,12.9,28.5,23.5,44.3,31.3,16.9,8.4,34.4,13.5,52,15.1,94.2,8.8,189.7,13.2,283.9,13.2s189.7-4.4,283.9-13.2c17.6-1.6,35.1-6.7,52-15.1,15.9-7.9,30.8-18.4,44.3-31.3h0c13.6-13.1,24.8-27.5,33.3-43.1,9.2-16.7,14.9-34.1,17.2-51.8,9.3-73,14-147,14-220s-4.7-147-14-220c-2.2-17.6-8-35.1-17.2-51.8-8.5-15.6-19.8-30.1-33.3-43.1h0c-13.6-13-28.5-23.5-44.3-31.4-16.9-8.4-34.4-13.5-52-15.1-94.2-8.8-189.7-13.2-283.9-13.2h0Z"/>
</svg>